<mxfile host="Electron" agent="Mozilla/5.0 (Windows NT 10.0; Win64; x64) AppleWebKit/537.36 (KHTML, like Gecko) draw.io/24.7.8 Chrome/128.0.6613.36 Electron/32.0.1 Safari/537.36" version="24.7.8">
  <diagram id="SXpI7jm_nY8A5KxHvSRa" name="Page-1">
    <mxGraphModel dx="2074" dy="1196" grid="1" gridSize="10" guides="1" tooltips="1" connect="1" arrows="1" fold="1" page="1" pageScale="1" pageWidth="850" pageHeight="1100" math="0" shadow="0">
      <root>
        <mxCell id="0" />
        <mxCell id="1" parent="0" />
        <mxCell id="73" value="" style="rounded=1;whiteSpace=wrap;html=1;absoluteArcSize=1;arcSize=14;strokeWidth=2;fillColor=#fad7ac;fontColor=#000000;strokeColor=#B46504;" parent="1" vertex="1">
          <mxGeometry x="220" y="30" width="1420" height="330" as="geometry" />
        </mxCell>
        <mxCell id="74" value="" style="rounded=1;whiteSpace=wrap;html=1;absoluteArcSize=1;arcSize=14;strokeWidth=2;fillColor=#cdeb8b;fontColor=#000000;strokeColor=#97D077;dashed=1;fillStyle=hatch;" parent="1" vertex="1">
          <mxGeometry x="1030" y="92" width="170" height="200" as="geometry" />
        </mxCell>
        <mxCell id="75" value="" style="rounded=1;whiteSpace=wrap;html=1;absoluteArcSize=1;arcSize=14;strokeWidth=2;fillColor=#cdeb8b;fontColor=#000000;strokeColor=#97D077;" parent="1" vertex="1">
          <mxGeometry x="1050" y="107" width="170" height="200" as="geometry" />
        </mxCell>
        <mxCell id="76" value="" style="rounded=1;whiteSpace=wrap;html=1;absoluteArcSize=1;arcSize=14;strokeWidth=2;fillColor=#cdeb8b;fontColor=#000000;strokeColor=#97D077;dashed=1;fillStyle=hatch;" parent="1" vertex="1">
          <mxGeometry x="620" y="92" width="330" height="200" as="geometry" />
        </mxCell>
        <mxCell id="77" value="" style="rounded=1;whiteSpace=wrap;html=1;absoluteArcSize=1;arcSize=14;strokeWidth=2;fillColor=#cdeb8b;fontColor=#000000;strokeColor=#97D077;" parent="1" vertex="1">
          <mxGeometry x="640" y="107" width="330" height="200" as="geometry" />
        </mxCell>
        <mxCell id="78" value="" style="rounded=1;whiteSpace=wrap;html=1;absoluteArcSize=1;arcSize=14;strokeWidth=2;fillColor=#cdeb8b;fontColor=#000000;strokeColor=#97D077;" parent="1" vertex="1">
          <mxGeometry x="660" y="122" width="330" height="200" as="geometry" />
        </mxCell>
        <mxCell id="79" value="" style="rounded=1;whiteSpace=wrap;html=1;absoluteArcSize=1;arcSize=14;strokeWidth=2;fillColor=#cdeb8b;fontColor=#000000;strokeColor=#97D077;" parent="1" vertex="1">
          <mxGeometry x="1070" y="122" width="170" height="200" as="geometry" />
        </mxCell>
        <mxCell id="80" value="" style="edgeStyle=elbowEdgeStyle;elbow=horizontal;endArrow=classic;html=1;curved=0;rounded=0;endSize=8;startSize=8;exitX=0;exitY=0.5;exitDx=0;exitDy=0;strokeWidth=6;fontColor=#000000;strokeColor=#000000;" parent="1" edge="1">
          <mxGeometry width="50" height="50" relative="1" as="geometry">
            <mxPoint x="520" y="222" as="sourcePoint" />
            <mxPoint x="620" y="172" as="targetPoint" />
            <Array as="points">
              <mxPoint x="570" y="202" />
            </Array>
          </mxGeometry>
        </mxCell>
        <mxCell id="81" value="" style="edgeStyle=elbowEdgeStyle;elbow=horizontal;endArrow=classic;html=1;curved=0;rounded=0;endSize=8;startSize=8;strokeWidth=6;fontColor=#000000;strokeColor=#000000;" parent="1" edge="1">
          <mxGeometry width="50" height="50" relative="1" as="geometry">
            <mxPoint x="540" y="222" as="sourcePoint" />
            <mxPoint x="660" y="271.9999999999998" as="targetPoint" />
            <Array as="points">
              <mxPoint x="570" y="242" />
            </Array>
          </mxGeometry>
        </mxCell>
        <mxCell id="82" value="" style="edgeStyle=elbowEdgeStyle;elbow=horizontal;endArrow=classic;html=1;curved=0;rounded=0;endSize=8;startSize=8;strokeWidth=6;exitX=0;exitY=0.583;exitDx=0;exitDy=0;exitPerimeter=0;fontColor=#000000;strokeColor=#000000;" parent="1" source="73" edge="1">
          <mxGeometry width="50" height="50" relative="1" as="geometry">
            <mxPoint x="520" y="222" as="sourcePoint" />
            <mxPoint x="640" y="222" as="targetPoint" />
            <Array as="points">
              <mxPoint x="590" y="192" />
            </Array>
          </mxGeometry>
        </mxCell>
        <mxCell id="83" value="" style="endArrow=classic;html=1;exitX=1;exitY=0.5;exitDx=0;exitDy=0;strokeWidth=6;fontColor=#000000;" parent="1" source="78" edge="1">
          <mxGeometry width="50" height="50" relative="1" as="geometry">
            <mxPoint x="1200" y="252" as="sourcePoint" />
            <mxPoint x="1050" y="222" as="targetPoint" />
          </mxGeometry>
        </mxCell>
        <mxCell id="84" value="" style="endArrow=classic;html=1;exitX=1;exitY=0.25;exitDx=0;exitDy=0;strokeWidth=6;entryX=-0.002;entryY=0.402;entryDx=0;entryDy=0;entryPerimeter=0;fontColor=#000000;" parent="1" source="78" target="74" edge="1">
          <mxGeometry width="50" height="50" relative="1" as="geometry">
            <mxPoint x="1210" y="212" as="sourcePoint" />
            <mxPoint x="1190" y="172" as="targetPoint" />
          </mxGeometry>
        </mxCell>
        <mxCell id="85" value="" style="endArrow=classic;html=1;exitX=1;exitY=0.75;exitDx=0;exitDy=0;entryX=0;entryY=0.75;entryDx=0;entryDy=0;strokeWidth=6;fontColor=#000000;" parent="1" source="78" target="79" edge="1">
          <mxGeometry width="50" height="50" relative="1" as="geometry">
            <mxPoint x="1210" y="222" as="sourcePoint" />
            <mxPoint x="1190" y="272" as="targetPoint" />
          </mxGeometry>
        </mxCell>
        <mxCell id="86" value="" style="edgeStyle=elbowEdgeStyle;elbow=horizontal;endArrow=none;html=1;curved=0;rounded=0;endSize=8;startSize=8;exitX=1;exitY=0.75;exitDx=0;exitDy=0;strokeWidth=6;endFill=0;fontColor=#000000;" parent="1" source="79" edge="1">
          <mxGeometry width="50" height="50" relative="1" as="geometry">
            <mxPoint x="1730" y="272" as="sourcePoint" />
            <mxPoint x="1290" y="220" as="targetPoint" />
            <Array as="points">
              <mxPoint x="1290" y="230" />
            </Array>
          </mxGeometry>
        </mxCell>
        <mxCell id="87" value="" style="edgeStyle=elbowEdgeStyle;elbow=horizontal;endArrow=none;html=1;curved=0;rounded=0;endSize=8;startSize=8;exitX=1;exitY=0.5;exitDx=0;exitDy=0;strokeWidth=6;endFill=0;fontColor=#000000;" parent="1" source="79" edge="1">
          <mxGeometry width="50" height="50" relative="1" as="geometry">
            <mxPoint x="1730" y="212" as="sourcePoint" />
            <mxPoint x="1290" y="222" as="targetPoint" />
          </mxGeometry>
        </mxCell>
        <mxCell id="88" value="" style="edgeStyle=elbowEdgeStyle;elbow=horizontal;endArrow=none;html=1;curved=0;rounded=0;endSize=8;startSize=8;exitX=1;exitY=0.25;exitDx=0;exitDy=0;strokeWidth=6;entryX=0;entryY=0.5;entryDx=0;entryDy=0;entryPerimeter=0;endFill=0;fontColor=#000000;" parent="1" source="79" target="152" edge="1">
          <mxGeometry width="50" height="50" relative="1" as="geometry">
            <mxPoint x="1740" y="192" as="sourcePoint" />
            <mxPoint x="1370" y="222" as="targetPoint" />
            <Array as="points">
              <mxPoint x="1290" y="180" />
            </Array>
          </mxGeometry>
        </mxCell>
        <mxCell id="89" value="" style="endArrow=none;html=1;exitX=0;exitY=0.5;exitDx=0;exitDy=0;strokeWidth=6;entryX=1;entryY=0.5;entryDx=0;entryDy=0;endFill=0;fontColor=#000000;strokeColor=#000000;" parent="1" source="92" target="91" edge="1">
          <mxGeometry width="50" height="50" relative="1" as="geometry">
            <mxPoint x="1000" y="232" as="sourcePoint" />
            <mxPoint x="1060" y="232" as="targetPoint" />
          </mxGeometry>
        </mxCell>
        <mxCell id="90" value="" style="rounded=1;whiteSpace=wrap;html=1;absoluteArcSize=1;arcSize=14;strokeWidth=2;fillColor=#f8cecc;fontColor=#000000;strokeColor=#B85450;" parent="1" vertex="1">
          <mxGeometry x="1090" y="180" width="130" height="122" as="geometry" />
        </mxCell>
        <mxCell id="91" value="" style="rounded=1;whiteSpace=wrap;html=1;absoluteArcSize=1;arcSize=14;strokeWidth=2;fillColor=#f8cecc;fontColor=#000000;strokeColor=#B85450;" parent="1" vertex="1">
          <mxGeometry x="830" y="180" width="130" height="122" as="geometry" />
        </mxCell>
        <mxCell id="92" value="" style="rounded=1;whiteSpace=wrap;html=1;absoluteArcSize=1;arcSize=14;strokeWidth=2;fillColor=#f8cecc;fontColor=#000000;strokeColor=#B85450;" parent="1" vertex="1">
          <mxGeometry x="680" y="180" width="130" height="122" as="geometry" />
        </mxCell>
        <mxCell id="93" value="&lt;font&gt;&lt;span style=&quot;font-size: 30px;&quot;&gt;Module&lt;/span&gt;&lt;/font&gt;" style="text;html=1;align=center;verticalAlign=middle;whiteSpace=wrap;rounded=0;fontColor=#000000;" parent="1" vertex="1">
          <mxGeometry x="685" y="190" width="120" height="39" as="geometry" />
        </mxCell>
        <mxCell id="94" value="&lt;font&gt;&lt;span style=&quot;font-size: 30px;&quot;&gt;Module&lt;/span&gt;&lt;/font&gt;" style="text;html=1;align=center;verticalAlign=middle;whiteSpace=wrap;rounded=0;fontColor=#000000;" parent="1" vertex="1">
          <mxGeometry x="835" y="190" width="120" height="39" as="geometry" />
        </mxCell>
        <mxCell id="95" value="&lt;font&gt;&lt;span style=&quot;font-size: 30px;&quot;&gt;Module&lt;/span&gt;&lt;/font&gt;" style="text;html=1;align=center;verticalAlign=middle;whiteSpace=wrap;rounded=0;fontColor=#000000;" parent="1" vertex="1">
          <mxGeometry x="1095" y="190" width="120" height="39" as="geometry" />
        </mxCell>
        <mxCell id="96" value="&lt;font&gt;&lt;span style=&quot;font-size: 30px;&quot;&gt;Phase&lt;/span&gt;&lt;/font&gt;" style="text;html=1;align=center;verticalAlign=middle;whiteSpace=wrap;rounded=0;fontColor=#000000;" parent="1" vertex="1">
          <mxGeometry x="660" y="130" width="120" height="39" as="geometry" />
        </mxCell>
        <mxCell id="97" value="&lt;font&gt;&lt;span style=&quot;font-size: 30px;&quot;&gt;Phase&lt;/span&gt;&lt;/font&gt;" style="text;html=1;align=center;verticalAlign=middle;whiteSpace=wrap;rounded=0;fontColor=#000000;" parent="1" vertex="1">
          <mxGeometry x="1070" y="130" width="120" height="39" as="geometry" />
        </mxCell>
        <mxCell id="98" value="&lt;font style=&quot;font-size: 30px;&quot;&gt;Controller with n-workers&lt;/font&gt;" style="text;html=1;align=center;verticalAlign=middle;whiteSpace=wrap;rounded=0;fontColor=#000000;" parent="1" vertex="1">
          <mxGeometry x="230" y="40" width="335" height="39" as="geometry" />
        </mxCell>
        <mxCell id="126" value="" style="group;fillColor=#ffcccc;strokeColor=#36393d;" parent="1" vertex="1" connectable="0">
          <mxGeometry x="240" y="180" width="135" height="90" as="geometry" />
        </mxCell>
        <mxCell id="99" value="" style="shape=process;whiteSpace=wrap;html=1;backgroundOutline=1;fillColor=#ffff88;strokeColor=#36393d;" parent="126" vertex="1">
          <mxGeometry width="135" height="90" as="geometry" />
        </mxCell>
        <mxCell id="100" value="&lt;font style=&quot;font-size: 20px;&quot;&gt;Add Sequence-Number&lt;/font&gt;" style="text;html=1;align=center;verticalAlign=middle;whiteSpace=wrap;rounded=0;fontColor=#000000;" parent="126" vertex="1">
          <mxGeometry width="130" height="81.5" as="geometry" />
        </mxCell>
        <mxCell id="128" value="" style="group;fillColor=#ffff88;strokeColor=#36393d;" parent="1" vertex="1" connectable="0">
          <mxGeometry x="1430" y="139.63" width="130" height="110" as="geometry" />
        </mxCell>
        <mxCell id="101" value="" style="shape=process;whiteSpace=wrap;html=1;backgroundOutline=1;fillColor=#ffff88;strokeColor=#36393d;" parent="128" vertex="1">
          <mxGeometry width="130" height="110.00000000000001" as="geometry" />
        </mxCell>
        <mxCell id="102" value="&lt;font style=&quot;&quot;&gt;&lt;span style=&quot;font-size: 18px;&quot;&gt;ORDER BY SEQUENCE or&lt;/span&gt;&lt;br&gt;&lt;span style=&quot;font-size: 18px;&quot;&gt;NOT PARALLEL&lt;/span&gt;&lt;br&gt;&lt;/font&gt;" style="text;html=1;align=center;verticalAlign=middle;whiteSpace=wrap;rounded=0;fontColor=#000000;" parent="128" vertex="1">
          <mxGeometry x="10" y="5.194444444444445" width="110" height="99.61111111111111" as="geometry" />
        </mxCell>
        <mxCell id="104" value="" style="shape=process;whiteSpace=wrap;html=1;backgroundOutline=1;fillStyle=auto;strokeColor=#23445d;fontSize=20;fillColor=#bac8d3;" parent="1" vertex="1">
          <mxGeometry x="400" y="85" width="150" height="260" as="geometry" />
        </mxCell>
        <mxCell id="139" value="" style="endArrow=classic;html=1;strokeWidth=6;fontSize=20;exitX=0.5;exitY=1;exitDx=0;exitDy=0;entryX=0.18;entryY=0.997;entryDx=0;entryDy=0;entryPerimeter=0;fontColor=#000000;strokeColor=#000000;" parent="1" source="135" target="73" edge="1">
          <mxGeometry width="50" height="50" relative="1" as="geometry">
            <mxPoint x="340" y="235" as="sourcePoint" />
            <mxPoint x="390" y="185" as="targetPoint" />
          </mxGeometry>
        </mxCell>
        <mxCell id="122" value="&lt;font style=&quot;font-size: 20px;&quot;&gt;Queue&lt;/font&gt;" style="text;html=1;align=center;verticalAlign=middle;whiteSpace=wrap;rounded=0;fontColor=#000000;" parent="1" vertex="1">
          <mxGeometry x="415" y="80" width="120" height="39" as="geometry" />
        </mxCell>
        <mxCell id="132" value="" style="rounded=1;whiteSpace=wrap;html=1;fillStyle=auto;strokeColor=#23445d;fontSize=20;fillColor=#8388D3;" parent="1" vertex="1">
          <mxGeometry x="440" y="175" width="70" height="22.25" as="geometry" />
        </mxCell>
        <mxCell id="133" value="" style="rounded=1;whiteSpace=wrap;html=1;fillStyle=auto;strokeColor=#23445d;fontSize=20;fillColor=#8388D3;" parent="1" vertex="1">
          <mxGeometry x="440" y="197.25" width="70" height="22.25" as="geometry" />
        </mxCell>
        <mxCell id="111" value="" style="rounded=1;whiteSpace=wrap;html=1;fillStyle=auto;strokeColor=#23445d;fontSize=20;fillColor=#8388D3;" parent="1" vertex="1">
          <mxGeometry x="410" y="122.75" width="50" height="22.25" as="geometry" />
        </mxCell>
        <mxCell id="134" value="" style="rounded=1;whiteSpace=wrap;html=1;fillStyle=hatch;strokeColor=#23445d;fontSize=20;fillColor=#8388D3;dashed=1;" parent="1" vertex="1">
          <mxGeometry x="440" y="219.5" width="70" height="22.25" as="geometry" />
        </mxCell>
        <mxCell id="135" value="" style="rounded=1;whiteSpace=wrap;html=1;fillStyle=auto;strokeColor=#23445d;fontSize=20;fillColor=#8388D3;" parent="1" vertex="1">
          <mxGeometry x="440" y="241.75" width="70" height="22.25" as="geometry" />
        </mxCell>
        <mxCell id="138" value="" style="edgeStyle=segmentEdgeStyle;endArrow=classic;html=1;curved=0;rounded=0;endSize=8;startSize=8;strokeWidth=6;fontSize=20;exitX=1;exitY=0.5;exitDx=0;exitDy=0;entryX=0.5;entryY=0;entryDx=0;entryDy=0;fontColor=#000000;strokeColor=#000000;" parent="1" source="111" target="132" edge="1">
          <mxGeometry width="50" height="50" relative="1" as="geometry">
            <mxPoint x="450" y="45" as="sourcePoint" />
            <mxPoint x="500" y="-5" as="targetPoint" />
          </mxGeometry>
        </mxCell>
        <mxCell id="140" value="" style="endArrow=classic;html=1;strokeWidth=6;fontSize=20;entryX=0.997;entryY=0.804;entryDx=0;entryDy=0;entryPerimeter=0;exitX=0.633;exitY=0.507;exitDx=0;exitDy=0;exitPerimeter=0;fontColor=#000000;strokeColor=#000000;" parent="1" source="117" target="104" edge="1">
          <mxGeometry width="50" height="50" relative="1" as="geometry">
            <mxPoint x="560" y="295" as="sourcePoint" />
            <mxPoint x="610" y="245" as="targetPoint" />
          </mxGeometry>
        </mxCell>
        <mxCell id="117" value="" style="rhombus;whiteSpace=wrap;html=1;fillStyle=auto;strokeColor=#000000;strokeWidth=2;fontSize=20;fillColor=#FFFFFF;gradientColor=none;fontColor=#000000;" parent="1" vertex="1">
          <mxGeometry x="456.25" y="275" width="37.5" height="37.5" as="geometry" />
        </mxCell>
        <mxCell id="144" value="" style="endArrow=none;html=1;strokeWidth=6;fontSize=20;entryX=0;entryY=0.5;entryDx=0;entryDy=0;exitX=0.001;exitY=0.188;exitDx=0;exitDy=0;exitPerimeter=0;fontColor=#000000;" parent="1" source="104" target="111" edge="1">
          <mxGeometry width="50" height="50" relative="1" as="geometry">
            <mxPoint x="370" y="150" as="sourcePoint" />
            <mxPoint x="420" y="100" as="targetPoint" />
          </mxGeometry>
        </mxCell>
        <mxCell id="146" value="" style="group;fillColor=#ffff88;strokeColor=#36393d;" parent="1" vertex="1" connectable="0">
          <mxGeometry x="1430" y="260" width="130" height="90" as="geometry" />
        </mxCell>
        <mxCell id="147" value="" style="shape=process;whiteSpace=wrap;html=1;backgroundOutline=1;fillColor=#ffff88;strokeColor=#36393d;" parent="146" vertex="1">
          <mxGeometry width="130" height="90" as="geometry" />
        </mxCell>
        <mxCell id="148" value="&lt;font style=&quot;font-size: 18px;&quot;&gt;&lt;span style=&quot;&quot;&gt;FIRST&lt;br&gt;WINS&lt;/span&gt;&lt;/font&gt;" style="text;html=1;align=center;verticalAlign=middle;whiteSpace=wrap;rounded=0;fontColor=#000000;" parent="146" vertex="1">
          <mxGeometry x="10" y="4.25" width="110" height="81.5" as="geometry" />
        </mxCell>
        <mxCell id="163" value="" style="edgeStyle=elbowEdgeStyle;elbow=horizontal;endArrow=classic;html=1;curved=0;rounded=0;endSize=8;startSize=8;strokeWidth=6;fontSize=20;exitX=1;exitY=0.5;exitDx=0;exitDy=0;exitPerimeter=0;entryX=0;entryY=0.5;entryDx=0;entryDy=0;fontColor=#000000;" parent="1" source="152" target="101" edge="1">
          <mxGeometry width="50" height="50" relative="1" as="geometry">
            <mxPoint x="1380" y="210" as="sourcePoint" />
            <mxPoint x="1430" y="160" as="targetPoint" />
            <Array as="points">
              <mxPoint x="1390" y="220" />
            </Array>
          </mxGeometry>
        </mxCell>
        <mxCell id="164" value="" style="edgeStyle=elbowEdgeStyle;elbow=horizontal;endArrow=classic;html=1;curved=0;rounded=0;endSize=8;startSize=8;strokeWidth=6;fontSize=18;exitX=0.5;exitY=1;exitDx=0;exitDy=0;exitPerimeter=0;entryX=0;entryY=0.5;entryDx=0;entryDy=0;fontColor=#000000;" parent="1" source="152" target="147" edge="1">
          <mxGeometry width="50" height="50" relative="1" as="geometry">
            <mxPoint x="1330" y="299.63" as="sourcePoint" />
            <mxPoint x="1380" y="249.63" as="targetPoint" />
            <Array as="points">
              <mxPoint x="1340" y="260" />
            </Array>
          </mxGeometry>
        </mxCell>
        <mxCell id="165" value="" style="group;fontColor=#000000;" parent="1" vertex="1" connectable="0">
          <mxGeometry x="1430" y="40" width="130" height="90" as="geometry" />
        </mxCell>
        <mxCell id="166" value="" style="shape=process;whiteSpace=wrap;html=1;backgroundOutline=1;fillColor=#ffff88;strokeColor=#36393d;" parent="165" vertex="1">
          <mxGeometry width="130" height="90" as="geometry" />
        </mxCell>
        <mxCell id="167" value="&lt;font&gt;&lt;span style=&quot;font-size: 18px;&quot;&gt;NO ORDER&lt;/span&gt;&lt;/font&gt;" style="text;html=1;align=center;verticalAlign=middle;whiteSpace=wrap;rounded=0;fontColor=#000000;" parent="165" vertex="1">
          <mxGeometry x="10" y="4.25" width="110" height="81.5" as="geometry" />
        </mxCell>
        <mxCell id="168" value="" style="edgeStyle=elbowEdgeStyle;elbow=horizontal;endArrow=classic;html=1;curved=0;rounded=0;endSize=8;startSize=8;strokeWidth=6;fontSize=18;exitX=0.5;exitY=0;exitDx=0;exitDy=0;exitPerimeter=0;entryX=0;entryY=0.5;entryDx=0;entryDy=0;fontColor=#000000;" parent="1" source="152" target="166" edge="1">
          <mxGeometry width="50" height="50" relative="1" as="geometry">
            <mxPoint x="1340" y="140" as="sourcePoint" />
            <mxPoint x="1390" y="90" as="targetPoint" />
            <Array as="points">
              <mxPoint x="1340" y="150" />
            </Array>
          </mxGeometry>
        </mxCell>
        <mxCell id="169" value="" style="endArrow=classic;html=1;strokeWidth=6;fontSize=18;exitX=1;exitY=0.5;exitDx=0;exitDy=0;entryX=1;entryY=0.169;entryDx=0;entryDy=0;entryPerimeter=0;fontColor=#000000;strokeColor=#000000;" parent="1" source="166" target="73" edge="1">
          <mxGeometry width="50" height="50" relative="1" as="geometry">
            <mxPoint x="1600" y="130" as="sourcePoint" />
            <mxPoint x="1650" y="80" as="targetPoint" />
          </mxGeometry>
        </mxCell>
        <mxCell id="170" value="" style="endArrow=classic;html=1;strokeWidth=6;fontSize=18;exitX=1;exitY=0.5;exitDx=0;exitDy=0;entryX=1;entryY=0.5;entryDx=0;entryDy=0;fontColor=#000000;strokeColor=#000000;" parent="1" source="101" target="73" edge="1">
          <mxGeometry width="50" height="50" relative="1" as="geometry">
            <mxPoint x="1590" y="220" as="sourcePoint" />
            <mxPoint x="1640" y="170" as="targetPoint" />
          </mxGeometry>
        </mxCell>
        <mxCell id="171" value="" style="endArrow=classic;html=1;strokeWidth=6;fontSize=18;exitX=1;exitY=0.5;exitDx=0;exitDy=0;entryX=1;entryY=0.833;entryDx=0;entryDy=0;entryPerimeter=0;fontColor=#000000;strokeColor=#000000;" parent="1" source="147" target="73" edge="1">
          <mxGeometry width="50" height="50" relative="1" as="geometry">
            <mxPoint x="1580" y="300" as="sourcePoint" />
            <mxPoint x="1630" y="250" as="targetPoint" />
          </mxGeometry>
        </mxCell>
        <mxCell id="173" value="" style="endArrow=classic;html=1;exitX=1;exitY=0.25;exitDx=0;exitDy=0;strokeWidth=6;entryX=-0.002;entryY=0.402;entryDx=0;entryDy=0;entryPerimeter=0;fontColor=#000000;strokeColor=#000000;" parent="1" edge="1">
          <mxGeometry width="50" height="50" relative="1" as="geometry">
            <mxPoint x="990" y="171.63" as="sourcePoint" />
            <mxPoint x="1029.6599999999999" y="172.02999999999997" as="targetPoint" />
          </mxGeometry>
        </mxCell>
        <mxCell id="174" value="" style="endArrow=classic;html=1;exitX=1;exitY=0.5;exitDx=0;exitDy=0;strokeWidth=6;fontColor=#000000;strokeColor=#000000;" parent="1" edge="1">
          <mxGeometry width="50" height="50" relative="1" as="geometry">
            <mxPoint x="990" y="221.63" as="sourcePoint" />
            <mxPoint x="1050" y="221.63" as="targetPoint" />
          </mxGeometry>
        </mxCell>
        <mxCell id="175" value="" style="endArrow=classic;html=1;exitX=1;exitY=0.75;exitDx=0;exitDy=0;entryX=0;entryY=0.75;entryDx=0;entryDy=0;strokeWidth=6;fontColor=#000000;strokeColor=#000000;" parent="1" edge="1">
          <mxGeometry width="50" height="50" relative="1" as="geometry">
            <mxPoint x="990" y="271.63" as="sourcePoint" />
            <mxPoint x="1070" y="271.63" as="targetPoint" />
          </mxGeometry>
        </mxCell>
        <mxCell id="176" value="" style="edgeStyle=elbowEdgeStyle;elbow=horizontal;endArrow=none;html=1;curved=0;rounded=0;endSize=8;startSize=8;exitX=1;exitY=0.25;exitDx=0;exitDy=0;strokeWidth=6;entryX=0.37;entryY=0.5;entryDx=0;entryDy=0;entryPerimeter=0;endFill=0;fontColor=#000000;strokeColor=#000000;" parent="1" target="152" edge="1">
          <mxGeometry width="50" height="50" relative="1" as="geometry">
            <mxPoint x="1240" y="171.63" as="sourcePoint" />
            <mxPoint x="1310" y="222.26" as="targetPoint" />
            <Array as="points">
              <mxPoint x="1290" y="179.63" />
            </Array>
          </mxGeometry>
        </mxCell>
        <mxCell id="177" value="" style="edgeStyle=elbowEdgeStyle;elbow=horizontal;endArrow=none;html=1;curved=0;rounded=0;endSize=8;startSize=8;exitX=1;exitY=0.5;exitDx=0;exitDy=0;strokeWidth=6;endFill=0;fontColor=#000000;strokeColor=#000000;" parent="1" edge="1">
          <mxGeometry width="50" height="50" relative="1" as="geometry">
            <mxPoint x="1240" y="221.63" as="sourcePoint" />
            <mxPoint x="1290" y="221.63" as="targetPoint" />
          </mxGeometry>
        </mxCell>
        <mxCell id="178" value="" style="edgeStyle=elbowEdgeStyle;elbow=horizontal;endArrow=none;html=1;curved=0;rounded=0;endSize=8;startSize=8;exitX=1;exitY=0.75;exitDx=0;exitDy=0;strokeWidth=6;endFill=0;fontColor=#000000;strokeColor=#000000;" parent="1" edge="1">
          <mxGeometry width="50" height="50" relative="1" as="geometry">
            <mxPoint x="1240" y="271.63" as="sourcePoint" />
            <mxPoint x="1290" y="219.63" as="targetPoint" />
            <Array as="points">
              <mxPoint x="1290" y="229.63" />
            </Array>
          </mxGeometry>
        </mxCell>
        <mxCell id="179" value="" style="edgeStyle=elbowEdgeStyle;elbow=horizontal;endArrow=classic;html=1;curved=0;rounded=0;endSize=8;startSize=8;strokeWidth=6;fontSize=18;exitX=0.5;exitY=1;exitDx=0;exitDy=0;exitPerimeter=0;entryX=0;entryY=0.5;entryDx=0;entryDy=0;fontColor=#000000;strokeColor=#000000;" parent="1" edge="1">
          <mxGeometry width="50" height="50" relative="1" as="geometry">
            <mxPoint x="1337" y="249.26" as="sourcePoint" />
            <mxPoint x="1430" y="304.63" as="targetPoint" />
            <Array as="points">
              <mxPoint x="1340" y="259.63" />
            </Array>
          </mxGeometry>
        </mxCell>
        <mxCell id="180" value="" style="edgeStyle=elbowEdgeStyle;elbow=horizontal;endArrow=classic;html=1;curved=0;rounded=0;endSize=8;startSize=8;strokeWidth=6;fontSize=20;exitX=1;exitY=0.5;exitDx=0;exitDy=0;exitPerimeter=0;entryX=0;entryY=0.5;entryDx=0;entryDy=0;fontColor=#000000;strokeColor=#000000;" parent="1" edge="1">
          <mxGeometry width="50" height="50" relative="1" as="geometry">
            <mxPoint x="1364" y="222.26" as="sourcePoint" />
            <mxPoint x="1430" y="194.26" as="targetPoint" />
            <Array as="points">
              <mxPoint x="1390" y="219.63" />
            </Array>
          </mxGeometry>
        </mxCell>
        <mxCell id="181" value="" style="edgeStyle=elbowEdgeStyle;elbow=horizontal;endArrow=classic;html=1;curved=0;rounded=0;endSize=8;startSize=8;strokeWidth=6;fontSize=18;exitX=0.5;exitY=0;exitDx=0;exitDy=0;exitPerimeter=0;entryX=0;entryY=0.5;entryDx=0;entryDy=0;fontColor=#000000;strokeColor=#000000;" parent="1" edge="1">
          <mxGeometry width="50" height="50" relative="1" as="geometry">
            <mxPoint x="1337" y="195.26" as="sourcePoint" />
            <mxPoint x="1430" y="84.63" as="targetPoint" />
            <Array as="points">
              <mxPoint x="1340" y="149.63" />
            </Array>
          </mxGeometry>
        </mxCell>
        <mxCell id="152" value="" style="verticalLabelPosition=bottom;verticalAlign=top;html=1;shape=mxgraph.flowchart.summing_function;fillStyle=auto;strokeColor=#000000;strokeWidth=2;fontSize=20;fillColor=#FFFFFF;gradientColor=none;fontColor=#000000;" parent="1" vertex="1">
          <mxGeometry x="1313" y="194.63" width="54" height="54" as="geometry" />
        </mxCell>
      </root>
    </mxGraphModel>
  </diagram>
</mxfile>
